<svg width="56" height="56" viewBox="0 0 56 56" fill="none" xmlns="http://www.w3.org/2000/svg">
<path d="M28 4C41.2548 4 52 14.7452 52 28C52 41.2548 41.2548 52 28 52C21.0825 52 14.6364 49.0554 10.1125 44.0015C9.56 43.3843 9.61247 42.436 10.2297 41.8834C10.847 41.3309 11.7953 41.3834 12.3478 42.0006C16.3084 46.4252 21.9449 49 28 49C39.598 49 49 39.598 49 28C49 16.402 39.598 7 28 7C21.4729 7 15.4514 9.9978 11.506 15.0001L16.5 15C18.4444 15 18.4985 17.8356 16.662 17.9932L16.5 18H8C7.2203 18 6.57955 17.4051 6.50687 16.6445L6.5 16.5V8C6.5 7.17157 7.17157 6.5 8 6.5C8.7797 6.5 9.42045 7.09489 9.49313 7.85554L9.5 8L9.49935 12.7103C14.0085 7.25549 20.732 4 28 4ZM28 16C28.7797 16 29.4204 16.5949 29.4931 17.3555L29.5 17.5V27.379L35.5607 33.4393C36.1098 33.9885 36.1442 34.8576 35.6636 35.4467L35.5607 35.5607C35.0115 36.1098 34.1424 36.1442 33.5533 35.6636L33.4393 35.5607L26.9393 29.0607C26.6932 28.8145 26.5414 28.4916 26.5073 28.1483L26.5 28V17.5C26.5 16.6716 27.1716 16 28 16Z" fill="#3F8AE0"/>
</svg>
